<?xml version="1.0" encoding="UTF-8"?>
<!DOCTYPE svg PUBLIC "-//W3C//DTD SVG 1.1//EN" "http://www.w3.org/Graphics/SVG/1.1/DTD/svg11.dtd">
<!-- Creator: CorelDRAW 2019 (64-Bit) -->
<svg xmlns="http://www.w3.org/2000/svg" xml:space="preserve" width="46.8912mm" height="9.9873mm" version="1.1" style="shape-rendering:geometricPrecision; text-rendering:geometricPrecision; image-rendering:optimizeQuality; fill-rule:evenodd; clip-rule:evenodd"
viewBox="0 0 5732.72 1221.01"
 xmlns:xlink="http://www.w3.org/1999/xlink"
 xmlns:xodm="http://www.corel.com/coreldraw/odm/2003">
 <defs>
  <style type="text/css">
   <![CDATA[
    .str0 {stroke:white;stroke-width:9.32;stroke-miterlimit:22.9256}
    .fil0 {fill:#F23849}
    .fil1 {fill:white;fill-rule:nonzero}
   ]]>
  </style>
 </defs>
 <g id="Layer_x0020_1">
  <metadata id="CorelCorpID_0Corel-Layer"/>
  <path class="fil0" d="M547.95 345.05c23.77,-10.8 20.67,-10.33 36.65,-8.59l10.34 3.86c-10.44,19.5 -3.64,7.26 -19.68,22.8 10.05,15.44 11.64,48.96 7.64,75.03 -20.21,2.87 -23.58,-2.23 -38.63,-12.76 19.37,-71.81 1.3,-22.29 3.68,-80.33zm-155.74 -7.79c20.44,-14.19 17.46,-33.77 55.19,-35.59l4.18 10.17c0.1,0.28 0.64,4.73 2.09,9.27 25.76,-9.65 2.71,-14.68 36.55,-16.66 -3.74,26.06 -11.87,11.66 -3.81,28.28 8.55,17.67 12.59,5.6 11.86,32.67 -29.44,14.43 -42.83,1.87 -54.33,-19.95 -30.15,2.65 -28.84,1.82 -51.73,-8.18zm596.95 -158.1c19.43,6.41 26.31,19.82 39.57,32.98l13.29 8.57c7.4,1.66 4.84,-17.18 47.72,42.45 29.88,41.55 53.68,86.13 73.96,139.26 27.7,72.57 54.21,235.26 29.67,300.41 -8.08,21.44 -8.79,8.68 -16.93,32.63 -5.17,15.22 2.41,6.59 -7.59,24.81 -11.6,0.26 7.3,-0.4 -16.65,-10.39 -2.79,35.8 -0.46,12.6 -10.55,26.36l-12.21 13.62c-9.72,11.38 -24.68,28.31 -22.83,45.85 2.42,22.9 -5.82,5.48 9.41,20.16 10.45,-15.15 9.46,-18.31 15.31,-39.18l30.49 -12.79 -7.46 22.62c-25.18,32.67 -73.23,71.4 -125.96,68.48 -2.35,-13.08 0.13,-18.62 0.11,-18.95 -2.13,-27.21 -1.88,-9.11 -5.04,-20.83 -9.34,-34.68 2.89,-30.7 -4.71,-55.72 -6.77,-22.31 -45,-38.65 -12.51,-83.49l31.42 35.78c86.12,-65.97 -32.87,-89.58 18.82,-140.77l14.46 31.44c12.3,-42.43 -2.3,-24.81 23.91,-56.89 17.1,-20.92 19.98,-35.53 19.77,-69.88 -0.24,-40.05 -7.18,-34.43 -22.64,-60.32l-21.74 -40.86c-6.97,-10.12 -8.83,5.48 -8.99,-17.78 1.38,-0.84 8.66,-16.05 29.33,9.18 19.72,24.11 -0.11,15.18 23.01,28.66 2.76,-52.07 -29.35,-32.25 -25.04,-114.68 49.15,48.93 21.13,101.52 43.28,134.68 0.83,-1.47 1.6,-5.55 1.83,-4.72 0.23,0.83 1.39,-3.63 1.7,-4.89l2.47 -10.81c0.05,-0.39 1.48,-24.62 1.48,-24.82 -0.54,-29.06 -22.85,-75.79 -36.37,-96.57 -6.37,-9.77 6.25,6.77 -5.49,-6.87l-15.1 -16.21c-9.19,-13.89 -14.17,-38.25 -40.34,-53.91 -28.4,-16.98 -11.64,6.14 -36.14,-20.34 -7.84,-8.48 -14.46,-22.01 -16.74,-36.26zm-635.16 5.13c-13.23,16.48 -33.47,11.31 -57.31,11.5 -12.95,21.9 -17.19,21.64 -26.49,38.27 -23.63,-5.79 -4.29,-7.16 -30.03,-12.57 -10.22,9.54 -24.84,21.96 -29.37,27.84 -4.67,6.09 -7.12,6.87 -8.31,16.81 -5.34,44.33 32.58,10.62 52.59,1.78 22.03,-9.74 30.52,-6.06 55.24,-3.28 -12.4,38.06 -4.14,12.6 -2.15,50.59 -4.02,4.41 -12.65,10.72 -13.45,11.54 -12.13,12.62 -4.76,-3.36 -11.82,15.83 74.73,-15.59 18.4,-31.71 51.47,-72.3 17.12,29.19 3.15,67.11 -4.76,96.23 54.93,-2.59 -1.48,-24.56 49.88,-25.75 -12.37,15.04 -14.02,13.64 -10.78,41.38l57.99 27.09c-29.27,81.2 -91.46,20.05 -123.74,-9.83 -13.42,7.76 -13.72,14.96 -35.94,13.92l-18.15 -53.54 20.29 -25.78c-15.42,-19.67 -37.29,-27.76 -63.3,-35.7 -1.36,-0.4 -3.04,-1.1 -4.36,-1.48 -41.68,-11.92 -105.24,58.81 -118.03,81.23 -21.42,37.53 -37.34,67.67 -40.88,114.65 -8.61,114.06 21.91,77.99 47.51,104.55 10.83,11.26 24.51,53.5 22.59,72.79 -5.11,51.63 -5.64,31.41 7.3,78.28 28.58,103.5 -16.63,63.65 24.5,151.1 21.36,45.42 88.33,197.25 148.46,121 1.14,-1.44 4.35,-5.67 5.38,-7.24l8.52 -16.75c0.43,-1.67 0.75,-3.4 1.03,-5.13 0.29,-1.86 0.28,-3.85 0.44,-5.64 0.04,-0.42 -1.01,-16.98 -1.06,-19.02 123.66,-28.64 -16.05,-87.41 68.39,-146.47 46.68,-32.65 106.67,-35.71 123.33,-113.47l-73.24 0.39c-26.05,-52.42 -72.61,-158.61 -47.4,-217.02 23.09,11.75 20.17,64.72 27.19,92.47 4.32,17.05 12.52,30.17 14.77,47.15l5.2 40.53c0.4,1.32 2.07,5.75 2.4,4.87 0.32,-0.88 1.49,3.33 2.67,4.69 32.35,10.34 76.03,-9.23 101.12,-17.27 45.75,-14.65 55.35,-13.17 74.86,-52.73 -18.61,-25.1 -17.48,-24.13 -27.25,-45.16 -20.34,9 -18.06,14.37 -43.38,12.03 -9.72,-12.18 -32.47,-51.27 -19.41,-71.79 26.46,8.28 11.81,13 28.66,32.56 16.49,19.15 21.09,10 41.7,20.97 55.36,29.43 24.99,22.89 100.08,26.91 6.15,10 13.78,34.33 19.3,41.92 10.55,14.51 19.87,11.83 36.66,19.73 0.6,48.68 7.96,58.07 19.45,99.9 8.11,29.48 9.1,26.41 32.36,42.02l23.19 17.42 3.51 -19.13c-0.9,-9.45 -1.88,-5.53 -4.39,-13.52 -8.04,-25.66 -4.58,-65.37 18.34,-83.66 30.17,-24.08 41.65,-53.14 87.24,-65.22 14.79,21.58 25.37,33.64 27.35,67.55 29.44,-8 21.66,-18.66 29.65,6.14 2.67,8.26 1.61,38.63 2.19,49.59 2.7,50.88 24.33,29.38 10.7,67.89 -25.73,-5.79 -7.09,-9.96 -41.98,-13.89l52.2 93.82c26.68,24.95 81.23,1.7 111.89,-4.01 -60.77,103.71 -96.86,81.36 -161.3,178.02 -15.47,23.2 2.2,-3.48 -5.83,17.08 -5.98,15.28 -24.11,23.36 -39.73,32.58 -122.06,72.11 -207.33,76.69 -359.53,66.4l-186.61 -39.15c-102.49,-48.27 -176.45,-110.1 -237.93,-201.11 -183.22,-271.11 -102.45,-623.19 108.71,-788.76 40.61,-31.84 59.55,-42.23 106.67,-62.67 12.21,-5.29 23.33,-12.04 33.52,-16.92 48.54,-23.19 167.34,-11.96 230.34,-22.16 7.73,-1.25 16.21,-5.57 29.85,-11.38 56.82,-24.19 123.78,0.2 181,18.5 28.64,9.16 56.78,14.96 66.63,41.21l-31.36 11c-21.16,12.56 -40.01,-4.06 -62.33,-13.39 -50.26,-21.04 -36.26,-10.31 -44.02,-2.65l34.89 12.01 -47.56 35.54c11.15,20.61 0.34,6.42 22.53,18.8 -4.85,4.76 -1.39,5.05 -13.37,8.37 -3.83,1.06 2.31,25.95 -7.87,-0.15 -0.53,-1.34 -2.81,-0.28 -5.39,-0.67l-3.35 -38.35c-20.59,7.95 -5.23,-5.98 -17.67,22.98 -50.68,-12.8 3.73,-1.99 -31.24,0.87 -9.11,0.73 0.34,-1.1 -19.71,-3.01l-36.82 -1.92c-12.86,1.74 -24.59,11.66 -54.15,14.78l4.77 -19.39c11.16,7.09 20.86,10.45 31,3.95 -14.87,-29.32 -19.83,-42.02 -63.3,-41.3 -20.27,0.33 -103.86,17.8 -113.39,35.04 -22.18,40.04 30.41,-3.81 0.21,23.63l-31.21 7.42c-22.61,8.02 -2.64,8.4 -37.01,7.21zm862.91 488.22c22.73,-180.57 -52.9,-358.77 -142.39,-456.78 -385.83,-422.61 -1008.94,-176.78 -1069.97,327.13 -43.33,357.66 229.72,640.31 538.13,674.36 99.03,10.93 188.49,-2.52 273.9,-32.09 208.48,-72.16 368.39,-258.83 400.33,-512.62z"/>
  <path class="fil1 str0" d="M1774.43 428.16c0,14.48 5.09,29.24 15.07,44.16 10.14,14.92 35.81,37.14 77.12,66.38 79.52,56.08 132.32,101.44 158.58,135.74 26.1,34.46 39.23,71.15 39.23,110.09 0,55.2 -21.33,98.16 -64.15,128.88 -42.81,30.59 -89.65,45.94 -140.52,45.94 -36.1,0 -73.24,-7.45 -111.13,-22.52 -38.05,-15.06 -57,-30.87 -57,-47.44 0,-4.03 0.45,-11.77 1.34,-22.97 0.9,-11.19 1.2,-25.21 1.2,-42.21 0,-5.82 -0.45,-12.82 -1.48,-21.17 -1.06,-8.22 -1.5,-13.74 -1.5,-16.42 0,-10.73 6.42,-16.11 19.1,-16.11 14.17,0 22.07,10.75 23.86,32.37 3.42,35.5 15.95,63.1 37.45,82.94 21.48,19.84 51.31,29.68 89.36,29.68 38.33,0 69.95,-10.89 95.02,-32.52 25.21,-21.63 37.74,-49.82 37.74,-84.58 0,-21.04 -8.5,-43.25 -25.36,-66.68 -17.01,-23.57 -61.31,-60.87 -133.06,-112.04 -29.83,-20.88 -53.25,-38.78 -70.41,-53.55 -17.16,-14.61 -31.47,-32.08 -42.97,-52.22 -11.47,-20.14 -17.3,-42.96 -17.3,-68.62 0,-41.62 18.95,-76.23 56.69,-103.67 37.74,-27.3 81.14,-41.02 130.52,-41.02 27.89,0 57.89,6.86 89.81,20.72 31.92,13.89 47.89,30.14 47.89,48.79 0,2.68 -0.15,6.86 -0.45,12.53 -0.31,5.67 -0.45,14.02 -0.45,25.06 0,2.98 0.6,8.64 1.8,16.99 0,19.24 -6.71,28.95 -20.15,28.95 -4.77,0 -9.39,-2.24 -14.02,-6.71 -4.62,-4.47 -7.01,-9.4 -7.01,-14.48 0,-28.34 -9.69,-50.12 -28.94,-65.33 -19.26,-15.07 -42.81,-22.68 -70.57,-22.68 -31.63,0 -58.77,8.64 -81.45,26.11 -22.52,17.45 -33.86,36.54 -33.86,57.57zm383.98 583.87c1.78,-16.57 2.68,-62.51 2.68,-137.84 0,-36.25 -0.89,-89.34 -2.68,-159.16 -0.45,-7.16 -3.58,-13.57 -8.95,-18.94 -5.38,-5.38 -16.71,-9.56 -33.86,-12.38 -13.13,-2.09 -21.64,-4.62 -25.51,-7.46 -4.03,-2.98 -5.98,-6.71 -5.98,-11.05 0,-11.48 9.11,-17.3 27.31,-17.3 3.42,0 12.08,1.34 25.81,4.03 13.88,2.68 22.52,4.03 25.95,4.03 3.88,0 11.77,-1.64 23.71,-4.94 12.1,-3.28 19.55,-4.91 22.39,-4.91 7.9,0 12.98,1.78 14.92,5.22 2.09,3.58 3.14,8.95 3.14,16.26l0 154.25c0,31.47 9.84,56.38 29.68,74.88 19.84,18.5 43.11,27.74 69.66,27.74 12.82,0 29.08,-5.51 49.07,-16.7 20,-11.19 35.66,-27.45 46.85,-48.63 11.17,-21.19 16.85,-45.21 16.85,-71.9 0,-31.63 -9.69,-59.67 -29.08,-84.44 -19.4,-24.61 -41.92,-36.98 -67.72,-36.98 -15.38,0 -29.7,2.82 -42.67,8.5 -12.98,5.67 -21.48,8.5 -25.51,8.5 -4.18,0 -7.76,-1.33 -11.04,-3.86 -3.13,-2.69 -4.77,-5.82 -4.77,-9.56 0,-8.64 10.73,-17.59 32.07,-26.7 21.33,-9.1 39.68,-13.57 55.2,-13.57 46.98,0 86.52,15.06 118.28,45.05 31.77,30.12 47.73,71.01 47.73,122.77 0,39.99 -16.41,76.68 -49.22,110.24 -32.81,33.56 -72.34,50.42 -118.58,50.42 -17.75,0 -34.46,-2.38 -50.28,-7.02 -15.81,-4.62 -36.54,-15.36 -62.2,-32.36 -2.23,0 -3.42,7.46 -3.42,22.37 0,36.85 -2.53,64.89 -7.47,84.28 -5.06,19.26 -13.41,35.96 -25.5,50.12 -12.08,14.32 -23.86,24.3 -35.34,30.28 -11.65,5.97 -22.83,8.95 -33.72,8.95 -16.11,0 -24.17,-3.88 -24.17,-11.63 0,-3.3 3.58,-6.88 10.89,-10.75 17.59,-9.55 29.54,-22.08 35.96,-37.29 6.41,-15.23 9.55,-29.4 9.55,-42.52zm566.83 -383.83c48.49,0 90.54,16.57 126.64,49.83 35.96,33.11 54,71.46 54,114.86 0,48.63 -17.15,88.17 -51.62,118.75 -34.45,30.58 -80.4,45.94 -138.14,45.94 -45.49,0 -86.51,-15.51 -122.76,-46.69 -36.25,-31.19 -54.45,-69.97 -54.45,-116.2 0,-44.31 15.95,-83.1 47.88,-116.51 31.93,-33.25 78.02,-49.98 138.44,-49.98zm0.29 290.9c33.57,0 60.42,-12.08 80.57,-36.24 19.98,-24.18 29.98,-54.76 29.98,-91.75 0,-36.4 -10.73,-66.23 -32.23,-89.5 -21.48,-23.27 -48.78,-34.9 -81.9,-34.9 -33.85,0 -60.11,11.48 -78.9,34.3 -18.64,22.83 -28.03,52.36 -28.03,88.46 0,39.83 10.44,71.46 31.16,94.72 20.73,23.28 47.14,34.9 79.36,34.9zm336.99 -186.76l1.78 12.24c1.34,0 8.22,-13.89 20.29,-41.63 12.09,-27.59 24.17,-47.29 36.25,-59.09 12.08,-11.63 24.61,-17.45 37.45,-17.45 10,0 17.59,1.78 22.67,5.37 5.22,3.58 7.76,7.47 7.76,11.94 0,7.75 -1.8,13.88 -5.22,18.34 -3.58,4.63 -9.71,10.29 -18.51,17.15 -37.14,28.06 -63.84,62.2 -80.4,102.5 -16.55,40.12 -24.76,73.68 -24.76,100.38 0,12.53 1.64,21.03 5.07,25.51 3.28,4.47 11.48,8.35 24.3,11.33 12.84,3.13 21.04,6.42 24.92,9.85 3.73,3.58 5.67,7.74 5.67,12.37 0,8.51 -5.07,12.82 -15.37,12.82 -8.2,0 -19.54,-1.34 -34.01,-4.02 -14.46,-2.69 -29.98,-4.03 -46.69,-4.03 -11.2,0 -22.37,1.34 -33.86,4.03 -11.33,2.68 -18.64,4.02 -21.92,4.02 -8.22,0 -14.77,-1.64 -19.7,-4.77 -4.93,-3.13 -7.46,-7.02 -7.46,-11.79 0,-3.58 1.33,-6.86 4.18,-9.69 2.68,-2.84 10.59,-6.42 23.41,-10.75 12.68,-4.32 20.59,-8.66 23.57,-12.97 2.82,-4.33 4.33,-17.9 4.33,-40.87l0 -132.48c0,-8.35 -1.94,-15.97 -5.97,-22.52 -3.89,-6.71 -11.79,-11.79 -23.57,-15.51 -11.79,-3.58 -18.64,-6.71 -20.88,-9.4 -2.25,-2.68 -3.29,-5.67 -3.29,-8.95 0,-9.84 6.86,-14.76 20.59,-14.76 3.88,0 10.28,0.73 19.24,2.23 8.79,1.49 15.06,2.24 18.64,2.24 2.84,0 7.62,-0.6 14.17,-1.78 6.71,-1.2 14.48,-1.8 23.58,-1.8 15.81,0 23.71,16.87 23.71,50.43l0 21.48zm282.83 115.16c0,24.46 1.2,40.12 3.44,46.98 2.24,6.86 6.42,10.29 12.37,10.29 9.25,0 20.88,-5.22 34.46,-15.66 13.57,-10.44 22.83,-15.66 27.74,-15.66 4.03,0 7.47,1.78 10.44,5.22 3.15,3.57 4.63,7.9 4.63,12.82 0,8.2 -11.49,21.63 -34.3,40.12 -22.83,18.51 -42.97,27.74 -60.42,27.74 -46.1,0 -69.07,-33.71 -69.07,-100.98l0 -167.82c0,-5.53 -0.75,-8.5 -2.24,-8.95 -1.33,-0.45 -9.54,-0.6 -24.46,-0.6 -11.63,0 -19.54,-1.8 -23.57,-5.22 -4.02,-3.44 -6.11,-8.35 -6.11,-14.92 0,-5.67 1.49,-9.71 4.62,-12.08 3,-2.4 8.95,-4.78 17.91,-7.31 8.79,-2.4 15.66,-5.37 20.44,-8.66 4.77,-3.42 11.48,-10.44 20.12,-21.03 8.51,-10.6 14.62,-25.66 18.2,-44.76 3.73,-19.24 5.53,-47 5.53,-83.09 0,-17.16 4.77,-25.81 14.32,-25.81 10.75,0 17.46,2.38 20.14,7.15 2.69,4.93 4.03,12.98 4.03,24.32l0 145.89c0,5.83 3.73,8.8 11.33,8.8l62.06 0c12.53,0 18.79,5.53 18.79,16.57 0,12.84 -8.95,19.24 -27.01,19.24l-54.59 0c-4.17,0 -6.57,0.6 -7.47,1.94 -0.88,1.33 -1.33,4.62 -1.33,9.84l0 155.59zm213.78 -150.37c0,6.71 3.13,13.42 9.4,20.44 6.26,7.01 26.25,19.24 60.11,36.99 33.85,17.75 56.67,35.05 68.45,52.22 11.77,16.99 17.75,35.05 17.75,53.99 0,29.54 -12.38,52.96 -36.99,70.55 -24.6,17.46 -56.37,26.26 -95.46,26.26 -21.63,0 -43.11,-4.77 -64.6,-14.33 -21.32,-9.39 -32.07,-18.94 -32.07,-28.63 0,-7.91 -0.59,-17.75 -1.78,-29.24 -1.2,-11.63 -1.8,-20.88 -1.8,-27.89 0,-14.48 6.72,-21.64 20.15,-21.64 3.88,0 7.46,1.65 10.73,4.78 3.29,3.29 8.35,13.88 15.37,32.07 6.86,18.2 15.37,30.59 25.36,37.3 9.99,6.7 21.19,10 33.57,10 15.36,0 28.34,-5.09 38.93,-15.22 10.75,-10.15 16.11,-23.28 16.11,-39.24 0,-10.44 -3.58,-20.12 -10.89,-29.38 -7.31,-9.1 -27.15,-21.33 -59.66,-36.69 -32.52,-15.38 -53.56,-30.44 -63.4,-45.21 -9.69,-14.62 -14.62,-30.59 -14.62,-47.58 0,-22.68 10.6,-41.76 31.63,-57.14 21.19,-15.36 45.8,-23.12 73.68,-23.12 23.28,0 46.09,4.03 68.17,12.23 22.21,8.22 33.25,17.02 33.25,26.27 0,5.5 0.61,12.38 1.8,20.58 1.2,8.2 1.78,14.78 1.78,19.7 0,6.11 -1.49,11.63 -4.62,16.26 -3.12,4.62 -7.01,7.02 -11.79,7.02 -6.71,0 -11.48,-1.64 -14.32,-5.07 -2.84,-3.45 -5.37,-9.4 -7.6,-18.06 -2.4,-8.64 -6.11,-15.37 -11.33,-20.44 -5.22,-5.07 -12.23,-9.54 -20.88,-13.72 -8.8,-4.18 -18.5,-6.26 -29.24,-6.26 -10.72,0 -20.88,3.42 -30.56,10.29 -9.71,6.7 -14.62,14.01 -14.62,21.92zm680.5 213.92c14.93,0 26.26,-3.89 34.02,-11.8 7.74,-7.75 11.63,-17.75 11.63,-29.99 0,-11.04 2.54,-19.84 7.46,-26.25 4.93,-6.55 10.75,-9.84 17.3,-9.84 6.71,0 12.38,3.13 16.87,9.24 4.46,6.13 6.71,14.17 6.71,24.48 0,10.14 0.44,21.19 1.33,33.11 0.9,11.79 1.34,19.84 1.34,24.17 0,12.08 -1.8,19.84 -5.07,23.42 -3.44,3.73 -12.08,5.51 -25.95,5.51l-353.54 0c-24.77,0 -41.76,-1.94 -51.02,-5.67 -9.1,-3.73 -13.72,-9.4 -13.72,-16.85 0,-11.8 8.35,-17.75 24.9,-17.75 21.33,0 35.21,-3.44 41.62,-10.31 6.43,-6.71 9.56,-17.6 9.56,-32.36l0 -398.74c0,-42.96 -0.76,-71.31 -2.25,-85.33 -1.33,-13.86 -5.07,-22.81 -10.89,-26.85 -5.65,-3.88 -17.3,-5.82 -34.75,-5.82 -10.44,0 -18.51,-2.09 -24.17,-6.11 -5.66,-4.03 -8.51,-9.1 -8.51,-15.37 0,-5.66 2.54,-10.75 7.46,-15.06 4.93,-4.34 11.2,-6.41 18.82,-6.41l335.92 0c13.29,0 22.09,2.82 26.1,8.34 4.03,5.53 7.02,13.57 8.95,24.32 1.94,10.75 2.85,28.5 2.85,53.25 0,11.35 -4.93,17.01 -14.62,17.01 -5.53,0 -10.44,-1.64 -14.78,-5.07 -4.32,-3.44 -8.95,-11.93 -14.01,-25.65 -5.07,-13.58 -10.44,-22.39 -15.82,-26.25 -5.37,-3.74 -11.48,-5.67 -18.49,-5.67l-119.8 0c-20.12,0 -32.81,2.82 -38.03,8.5 -5.22,5.67 -7.91,14.17 -7.91,25.51l0 92.19c0,21.47 2.98,35.64 8.8,42.51 5.82,6.86 17.75,10.29 35.5,10.29l116.95 0c9.71,0 17.02,-3.89 21.93,-11.65 4.93,-7.74 7.47,-16.54 7.47,-26.25 0,-4.91 2.08,-9.1 6.1,-12.53 4.03,-3.42 8.8,-5.07 14.17,-5.07 5.83,0 10.6,1.94 14.33,5.67 3.73,3.73 5.67,9.11 5.67,16.11 0,6.11 -0.9,14.92 -2.85,26.41 -1.92,11.48 -2.82,20.88 -2.82,28.19 0,11.04 1.19,22.67 3.73,34.9 2.53,12.23 3.73,19.54 3.73,22.23 0,6.71 -2.24,12.24 -6.55,16.55 -4.34,4.33 -9.4,6.58 -15.07,6.58 -6.13,0 -11.2,-2.7 -15.21,-8.07 -4.03,-5.37 -6.13,-12.81 -6.13,-22.21 0,-11.05 -2.98,-18.95 -8.8,-23.58 -5.82,-4.61 -15.51,-7.01 -28.94,-7.01l-116.06 0c-10.44,0 -19.08,2.09 -25.81,6.41 -6.71,4.18 -10.15,10.31 -10.15,18.51l0 279.39c0,14.48 3.73,24.33 11.2,29.24 7.46,4.93 20.28,7.47 38.33,7.47l150.96 0zm432.46 -41.03c0,21.03 14.02,35.5 42.07,43.71 7.01,2.09 12.23,4.47 15.51,7.15 3.44,2.7 5.07,7.76 5.07,15.23 0,3.86 -2.24,7.14 -6.71,9.99 -4.63,2.82 -9.4,4.32 -14.77,4.32 -5.53,0 -12.98,-1.34 -22.52,-4.02 -9.4,-2.69 -17.02,-4.02 -22.84,-4.02 -6.71,0 -15.21,1.33 -25.5,4.02 -10.14,2.68 -17.01,4.02 -20.44,4.02 -4.17,0 -8.2,-1.49 -12.08,-4.62 -3.89,-3.13 -5.95,-6.26 -5.95,-9.4 0,-4.91 -1.36,-7.45 -4.34,-7.45 -2.09,0 -4.62,1.04 -7.91,3.13 -32.81,20.58 -68.46,30.87 -106.64,30.87 -18.06,0 -38.35,-4.62 -60.57,-14.02 -22.39,-9.23 -40.14,-23.56 -53.56,-42.95 -13.42,-19.4 -20.15,-43.41 -20.15,-71.91 0,-30.43 14.48,-57.14 43.43,-80.54 28.94,-23.28 66.08,-34.92 111.73,-34.92 15.36,0 32.37,4.33 50.71,12.98 18.5,8.5 27.75,17.3 27.75,26.4 0,4.34 -1.94,7.91 -5.67,10.44 -3.88,2.69 -8.5,4.03 -14.02,4.03 -3.73,0 -11.19,-2.69 -22.39,-7.76 -11.03,-5.07 -22.36,-7.59 -34.15,-7.59 -23.88,0 -43.72,7.01 -59.53,21.03 -15.66,14.02 -23.56,32.81 -23.56,56.24 0,27.3 9.08,48.18 27.14,62.8 18.04,14.61 38.93,21.92 62.51,21.92 21.32,0 40.87,-7.01 58.92,-21.03 17.91,-13.88 26.86,-32.53 26.86,-55.8l0 -118.44c0,-17.75 -5.82,-32.23 -17.62,-43.25 -11.77,-11.04 -27.43,-16.57 -47.13,-16.57 -25.21,0 -49.67,7.91 -73.4,23.88 -8.2,5.5 -13.72,8.35 -16.54,8.35 -7.02,0 -12.84,-1.8 -17.76,-5.53 -4.91,-3.58 -7.46,-8.35 -7.46,-14.17 0,-14.17 12.98,-26.25 39.09,-36.25 26.1,-9.84 54.44,-14.77 85.33,-14.77 38.18,0 68.92,9.55 92.18,28.8 23.28,19.23 34.9,42.2 34.9,68.76l0 146.94zm221.96 -137.68l1.8 12.24c1.33,0 8.22,-13.89 20.29,-41.63 12.08,-27.59 24.16,-47.29 36.24,-59.09 12.08,-11.63 24.61,-17.45 37.45,-17.45 10,0 17.6,1.78 22.67,5.37 5.22,3.58 7.76,7.47 7.76,11.94 0,7.75 -1.78,13.88 -5.22,18.34 -3.58,4.63 -9.69,10.29 -18.5,17.15 -37.15,28.06 -63.85,62.2 -80.4,102.5 -16.57,40.12 -24.77,73.68 -24.77,100.38 0,12.53 1.64,21.03 5.07,25.51 3.28,4.47 11.48,8.35 24.3,11.33 12.84,3.13 21.04,6.42 24.92,9.85 3.73,3.58 5.67,7.74 5.67,12.37 0,8.51 -5.07,12.82 -15.36,12.82 -8.22,0 -19.55,-1.34 -34.01,-4.02 -14.48,-2.69 -29.98,-4.03 -46.69,-4.03 -11.19,0 -22.37,1.34 -33.86,4.03 -11.32,2.68 -18.63,4.02 -21.92,4.02 -8.22,0 -14.77,-1.64 -19.68,-4.77 -4.94,-3.13 -7.47,-7.02 -7.47,-11.79 0,-3.58 1.34,-6.86 4.18,-9.69 2.68,-2.84 10.6,-6.42 23.41,-10.75 12.68,-4.32 20.6,-8.66 23.57,-12.97 2.84,-4.33 4.34,-17.9 4.34,-40.87l0 -132.48c0,-8.35 -1.94,-15.97 -5.98,-22.52 -3.88,-6.71 -11.77,-11.79 -23.57,-15.51 -11.79,-3.58 -18.64,-6.71 -20.88,-9.4 -2.24,-2.68 -3.28,-5.67 -3.28,-8.95 0,-9.84 6.86,-14.76 20.58,-14.76 3.89,0 10.29,0.73 19.24,2.23 8.8,1.49 15.07,2.24 18.66,2.24 2.82,0 7.6,-0.6 14.17,-1.78 6.71,-1.2 14.48,-1.8 23.57,-1.8 15.8,0 23.69,16.87 23.69,50.43l0 21.48zm282.83 115.16c0,24.46 1.21,40.12 3.44,46.98 2.24,6.86 6.42,10.29 12.37,10.29 9.25,0 20.88,-5.22 34.48,-15.66 13.57,-10.44 22.81,-15.66 27.74,-15.66 4.02,0 7.46,1.78 10.44,5.22 3.14,3.57 4.63,7.9 4.63,12.82 0,8.2 -11.49,21.63 -34.32,40.12 -22.83,18.51 -42.97,27.74 -60.42,27.74 -46.09,0 -69.06,-33.71 -69.06,-100.98l0 -167.82c0,-5.53 -0.76,-8.5 -2.25,-8.95 -1.33,-0.45 -9.54,-0.6 -24.45,-0.6 -11.64,0 -19.55,-1.8 -23.58,-5.22 -4.01,-3.44 -6.1,-8.35 -6.1,-14.92 0,-5.67 1.49,-9.71 4.62,-12.08 2.98,-2.4 8.95,-4.78 17.9,-7.31 8.8,-2.4 15.66,-5.37 20.44,-8.66 4.77,-3.42 11.48,-10.44 20.14,-21.03 8.5,-10.6 14.62,-25.66 18.19,-44.76 3.74,-19.24 5.53,-47 5.53,-83.09 0,-17.16 4.77,-25.81 14.32,-25.81 10.75,0 17.46,2.38 20.14,7.15 2.69,4.93 4.03,12.98 4.03,24.32l0 145.89c0,5.83 3.73,8.8 11.35,8.8l62.04 0c12.53,0 18.79,5.53 18.79,16.57 0,12.84 -8.95,19.24 -26.99,19.24l-54.6 0c-4.17,0 -6.55,0.6 -7.46,1.94 -0.89,1.33 -1.34,4.62 -1.34,9.84l0 155.59zm267.48 36.24c0,8.07 2.23,15.07 6.55,20.73 4.47,5.67 14.02,9.55 28.8,11.49 14.76,2.09 23.71,4.91 26.98,8.5 3.14,3.58 4.78,8.07 4.78,13.44 0,9.54 -8.35,14.3 -25.06,14.3 -8.79,0 -21.77,-1.04 -39.09,-3.13 -17.14,-2.09 -30.28,-3.13 -38.93,-3.13 -8.2,0 -20.29,1.04 -36.1,3.13 -15.82,2.09 -27.74,3.13 -35.94,3.13 -20.44,0 -30.74,-5.37 -30.74,-16.09 0,-5.09 1.49,-9.25 4.33,-12.38 2.98,-3.14 12.08,-5.53 27.3,-7.31 15.22,-1.64 25.36,-6.86 30.12,-15.67 4.77,-8.8 7.16,-18.94 7.16,-30.58l0 -471.69c0,-7.31 -2.54,-13.86 -7.46,-19.7 -4.93,-5.82 -14.77,-11.19 -29.39,-16.1 -14.62,-4.93 -23.27,-8.8 -26.1,-11.48 -2.84,-2.54 -4.18,-5.38 -4.18,-8.37 0,-10.28 8.66,-15.36 25.95,-15.36 5.07,0 12.68,0.6 22.97,1.8 10.31,1.19 17.9,1.64 22.83,1.64 5.37,0 12.68,-1.2 22.23,-3.89 9.56,-2.68 16.7,-4.03 21.33,-4.03 6.57,0 11.79,1.94 15.66,5.67 4.03,3.89 5.98,13.58 5.98,29.4l0 525.68zm218.37 -6.55c0,10.44 2.24,19.54 6.87,27.29 4.47,7.76 14.02,12.53 28.5,14.48 14.46,1.93 22.97,4.47 25.8,7.76 2.84,3.13 4.18,7.15 4.18,11.77 0,6.86 -2.09,10.89 -6.42,12.38 -4.17,1.49 -12.53,2.24 -25.21,2.24 -7.6,0 -19.1,-0.75 -34.6,-2.24 -15.51,-1.49 -26.86,-2.24 -34.17,-2.24 -8.2,0 -20.43,0.89 -36.54,2.69 -16.11,1.78 -28.19,2.68 -36.41,2.68 -18.63,0 -28.03,-6.26 -28.03,-18.94 0,-4.47 1.48,-8.06 4.33,-10.89 2.98,-2.84 11.77,-4.93 26.4,-6.57 14.62,-1.64 24.46,-6.13 29.23,-13.42 4.79,-7.31 7.16,-15.95 7.16,-25.95 0,-15.21 -0.28,-37.75 -0.89,-67.73 -0.6,-29.83 -0.89,-52.35 -0.89,-67.57 0,-13.88 -3.88,-24.48 -11.79,-31.92 -7.91,-7.46 -19.08,-11.19 -33.56,-11.19 -14.33,0 -30.74,7.01 -49.22,20.88 -11.5,8.8 -20.15,13.13 -25.82,13.13 -2.98,0 -5.95,-1.64 -9.1,-4.94 -3.13,-3.28 -4.78,-6.55 -4.78,-9.83 0,-15.22 15.23,-31.63 45.5,-49.23 30.28,-17.59 54.6,-26.4 72.94,-26.4 17.6,0 34.62,5.22 50.88,15.81 16.25,10.44 27.14,23.42 32.65,38.94 2.85,7.01 4.34,31.02 4.34,72.19 0,17.45 -0.31,38.49 -0.76,63.24 -0.45,24.61 -0.6,39.09 -0.6,43.57z"/>
 </g>
</svg>
