<?xml version="1.0" encoding="UTF-8"?>
<!DOCTYPE svg PUBLIC "-//W3C//DTD SVG 1.1//EN" "http://www.w3.org/Graphics/SVG/1.1/DTD/svg11.dtd">
<!-- Creator: CorelDRAW 2019 (64-Bit) -->
<svg xmlns="http://www.w3.org/2000/svg" xml:space="preserve" width="29.114mm" height="18.5547mm" version="1.1" style="shape-rendering:geometricPrecision; text-rendering:geometricPrecision; image-rendering:optimizeQuality; fill-rule:evenodd; clip-rule:evenodd"
viewBox="0 0 2193.68 1398.06"
 xmlns:xlink="http://www.w3.org/1999/xlink"
 xmlns:xodm="http://www.corel.com/coreldraw/odm/2003">
 <defs>
  <style type="text/css">
   <![CDATA[
    .str0 {stroke:white;stroke-width:5.74;stroke-miterlimit:22.9256}
    .fil0 {fill:#F23849}
    .fil1 {fill:white;fill-rule:nonzero}
   ]]>
  </style>
 </defs>
 <g id="Layer_x0020_1">
  <metadata id="CorelCorpID_0Corel-Layer"/>
  <g id="_2156171374864">
   <path class="fil0" d="M1058.29 212.65c14.65,-6.65 12.74,-6.37 22.59,-5.3l6.37 2.38c-6.43,12.02 -2.25,4.48 -12.13,14.05 6.19,9.52 7.17,30.18 4.71,46.24 -12.46,1.77 -14.53,-1.37 -23.81,-7.87 11.94,-44.26 0.8,-13.74 2.27,-49.51zm-95.99 -4.8c12.6,-8.75 10.76,-20.81 34.01,-21.93l2.58 6.27c0.06,0.17 0.39,2.92 1.29,5.71 15.88,-5.94 1.67,-9.05 22.53,-10.27 -2.31,16.06 -7.32,7.19 -2.35,17.43 5.27,10.89 7.76,3.45 7.31,20.13 -18.14,8.89 -26.39,1.15 -33.48,-12.3 -18.58,1.64 -17.77,1.12 -31.88,-5.04zm367.91 -97.44c11.97,3.95 16.21,12.21 24.39,20.33l8.19 5.28c4.56,1.02 2.98,-10.59 29.41,26.16 18.42,25.61 33.09,53.08 45.59,85.83 17.07,44.73 33.41,144.99 18.29,185.15 -4.98,13.22 -5.42,5.35 -10.44,20.11 -3.19,9.38 1.48,4.06 -4.68,15.29 -7.15,0.16 4.5,-0.25 -10.26,-6.4 -1.72,22.06 -0.29,7.77 -6.5,16.25l-7.53 8.39c-5.99,7.01 -15.21,17.45 -14.07,28.26 1.49,14.11 -3.59,3.38 5.8,12.42 6.44,-9.34 5.83,-11.29 9.43,-24.15l18.79 -7.88 -4.6 13.94c-15.52,20.13 -45.13,44 -77.63,42.2 -1.45,-8.06 0.08,-11.48 0.07,-11.68 -1.31,-16.77 -1.16,-5.61 -3.1,-12.84 -5.76,-21.38 1.78,-18.92 -2.9,-34.34 -4.17,-13.75 -27.74,-23.82 -7.71,-51.46l19.36 22.05c53.08,-40.66 -20.26,-55.21 11.6,-86.76l8.91 19.38c7.58,-26.15 -1.42,-15.29 14.74,-35.06 10.54,-12.89 12.31,-21.9 12.18,-43.07 -0.15,-24.68 -4.42,-21.22 -13.95,-37.18l-13.4 -25.18c-4.29,-6.24 -5.44,3.38 -5.54,-10.96 0.85,-0.52 5.33,-9.89 18.08,5.66 12.15,14.86 -0.07,9.36 14.18,17.66 1.7,-32.09 -18.09,-19.88 -15.43,-70.68 30.29,30.15 13.02,62.57 26.67,83 0.51,-0.9 0.99,-3.42 1.13,-2.91 0.14,0.51 0.86,-2.24 1.05,-3.01l1.52 -6.66c0.03,-0.24 0.91,-15.18 0.91,-15.3 -0.33,-17.91 -14.08,-46.71 -22.42,-59.52 -3.93,-6.02 3.85,4.17 -3.38,-4.23l-9.31 -9.99c-5.67,-8.56 -8.73,-23.58 -24.86,-33.23 -17.5,-10.47 -7.17,3.78 -22.27,-12.54 -4.83,-5.23 -8.91,-13.56 -10.32,-22.35zm-391.46 3.16c-8.15,10.16 -20.63,6.97 -35.32,7.09 -7.98,13.49 -10.59,13.34 -16.33,23.58 -14.56,-3.57 -2.64,-4.42 -18.51,-7.75 -6.3,5.88 -15.31,13.53 -18.1,17.16 -2.88,3.75 -4.39,4.23 -5.12,10.36 -3.29,27.32 20.08,6.55 32.41,1.1 13.58,-6.01 18.81,-3.74 34.04,-2.02 -7.64,23.46 -2.55,7.77 -1.33,31.18 -2.48,2.72 -7.8,6.61 -8.29,7.11 -7.47,7.78 -2.93,-2.07 -7.29,9.76 46.06,-9.61 11.34,-19.55 31.72,-44.56 10.55,17.99 1.94,41.36 -2.93,59.31 33.85,-1.6 -0.91,-15.14 30.74,-15.87 -7.63,9.27 -8.64,8.41 -6.65,25.51l35.74 16.7c-18.04,50.05 -56.37,12.36 -76.26,-6.06 -8.27,4.78 -8.45,9.22 -22.15,8.58l-11.19 -32.99 12.51 -15.89c-9.5,-12.12 -22.98,-17.11 -39.02,-22 -0.84,-0.25 -1.88,-0.68 -2.69,-0.91 -25.69,-7.35 -64.86,36.24 -72.74,50.06 -13.2,23.13 -23.01,41.71 -25.2,70.66 -5.3,70.3 13.5,48.06 29.28,64.44 6.68,6.94 15.11,32.97 13.92,44.86 -3.15,31.82 -3.47,19.36 4.5,48.25 17.62,63.79 -10.25,39.23 15.1,93.12 13.16,27.99 54.44,121.57 91.5,74.57 0.7,-0.89 2.68,-3.5 3.32,-4.46l5.25 -10.32c0.26,-1.03 0.46,-2.09 0.63,-3.16 0.18,-1.15 0.17,-2.37 0.27,-3.47 0.02,-0.26 -0.63,-10.47 -0.66,-11.72 76.21,-17.65 -9.89,-53.87 42.15,-90.27 28.77,-20.13 65.74,-22.01 76.01,-69.93l-45.14 0.24c-16.06,-32.31 -44.75,-97.76 -29.21,-133.75 14.23,7.24 12.43,39.89 16.76,56.99 2.66,10.51 7.72,18.6 9.1,29.06l3.2 24.98c0.25,0.81 1.27,3.54 1.48,3 0.2,-0.54 0.92,2.05 1.64,2.89 19.94,6.37 46.86,-5.69 62.32,-10.65 28.2,-9.03 34.11,-8.11 46.14,-32.5 -11.47,-15.47 -10.77,-14.87 -16.8,-27.83 -12.54,5.55 -11.13,8.85 -26.73,7.41 -5.99,-7.5 -20.01,-31.6 -11.97,-44.24 16.31,5.1 7.28,8.01 17.66,20.07 10.16,11.8 13,6.16 25.7,12.92 34.12,18.14 15.4,14.11 61.68,16.58 3.79,6.16 8.49,21.16 11.9,25.84 6.5,8.94 12.24,7.29 22.6,12.16 0.37,30 4.91,35.79 11.99,61.57 5,18.17 5.61,16.28 19.94,25.9l14.29 10.74 2.16 -11.79c-0.56,-5.82 -1.16,-3.41 -2.7,-8.33 -4.96,-15.82 -2.83,-40.29 11.3,-51.56 18.6,-14.84 25.67,-32.75 53.77,-40.2 9.12,13.3 15.63,20.74 16.86,41.63 18.14,-4.93 13.35,-11.5 18.27,3.78 1.64,5.09 0.99,23.81 1.35,30.56 1.67,31.36 14.99,18.11 6.59,41.84 -15.86,-3.57 -4.37,-6.14 -25.87,-8.56l32.17 57.82c16.44,15.38 50.06,1.05 68.96,-2.47 -37.46,63.92 -59.7,50.14 -99.41,109.71 -9.53,14.3 1.36,-2.15 -3.59,10.53 -3.68,9.42 -14.86,14.4 -24.49,20.08 -75.23,44.44 -127.78,47.27 -221.58,40.92l-115.01 -24.13c-63.16,-29.75 -108.75,-67.86 -146.64,-123.95 -112.92,-167.09 -63.14,-384.08 67,-486.12 25.03,-19.62 36.7,-26.03 65.74,-38.62 7.53,-3.26 14.38,-7.42 20.66,-10.43 29.91,-14.29 103.14,-7.37 141.96,-13.66 4.76,-0.77 9.99,-3.44 18.4,-7.01 35.02,-14.91 76.29,0.12 111.55,11.4 17.65,5.64 34.99,9.22 41.06,25.4l-19.33 6.78c-13.04,7.74 -24.66,-2.5 -38.41,-8.25 -30.98,-12.97 -22.35,-6.35 -27.13,-1.64l21.5 7.4 -29.31 21.9c6.87,12.7 0.21,3.96 13.89,11.59 -2.99,2.93 -0.86,3.11 -8.24,5.16 -2.36,0.66 1.42,16 -4.85,-0.09 -0.32,-0.83 -1.73,-0.17 -3.32,-0.41l-2.06 -23.64c-12.68,4.9 -3.22,-3.68 -10.89,14.17 -31.23,-7.89 2.3,-1.23 -19.25,0.53 -5.61,0.45 0.21,-0.68 -12.15,-1.85l-22.69 -1.18c-7.93,1.07 -15.15,7.19 -33.37,9.11l2.94 -11.95c6.88,4.37 12.85,6.44 19.11,2.43 -9.16,-18.07 -12.22,-25.9 -39.02,-25.45 -12.49,0.2 -64.01,10.97 -69.89,21.59 -13.67,24.68 18.74,-2.35 0.13,14.56l-19.24 4.57c-13.93,4.94 -1.63,5.18 -22.81,4.45zm531.82 300.89c14.01,-111.29 -32.6,-221.12 -87.76,-281.52 -237.79,-260.46 -621.82,-108.95 -659.44,201.62 -26.7,220.43 141.58,394.63 331.66,415.62 61.03,6.74 116.17,-1.55 168.81,-19.78 128.49,-44.47 227.05,-159.52 246.73,-315.93z"/>
   <path class="fil1 str0" d="M47.99 1023.36c0,7.84 2.76,15.85 8.17,23.93 5.49,8.08 19.41,20.13 41.8,35.98 43.1,30.4 71.72,54.98 85.95,73.57 14.14,18.68 21.26,38.57 21.26,59.67 0,29.92 -11.57,53.2 -34.77,69.86 -23.21,16.58 -48.59,24.9 -76.16,24.9 -19.56,0 -39.69,-4.04 -60.23,-12.21 -20.62,-8.16 -30.89,-16.73 -30.89,-25.71 0,-2.19 0.24,-6.39 0.72,-12.46 0.49,-6.07 0.66,-13.66 0.66,-22.88 0,-3.16 -0.25,-6.95 -0.81,-11.48 -0.57,-4.45 -0.82,-7.44 -0.82,-8.89 0,-5.82 3.49,-8.73 10.36,-8.73 7.68,0 11.96,5.82 12.93,17.54 1.86,19.24 8.65,34.2 20.29,44.95 11.65,10.76 27.82,16.09 48.43,16.09 20.77,0 37.92,-5.9 51.5,-17.62 13.67,-11.72 20.46,-27 20.46,-45.84 0,-11.4 -4.61,-23.44 -13.75,-36.14 -9.21,-12.78 -33.22,-32.99 -72.12,-60.72 -16.17,-11.32 -28.87,-21.01 -38.16,-29.02 -9.31,-7.92 -17.06,-17.38 -23.29,-28.29 -6.22,-10.92 -9.37,-23.28 -9.37,-37.19 0,-22.56 10.26,-41.32 30.72,-56.19 20.46,-14.8 43.98,-22.24 70.74,-22.24 15.11,0 31.37,3.71 48.67,11.23 17.3,7.53 25.95,16.33 25.95,26.44 0,1.45 -0.08,3.72 -0.24,6.8 -0.17,3.07 -0.25,7.6 -0.25,13.58 0,1.62 0.33,4.69 0.97,9.22 0,10.43 -3.63,15.69 -10.92,15.69 -2.58,0 -5.09,-1.21 -7.6,-3.64 -2.5,-2.43 -3.81,-5.09 -3.81,-7.84 0,-15.36 -5.24,-27.16 -15.67,-35.41 -10.44,-8.17 -23.21,-12.3 -38.25,-12.3 -17.13,0 -31.85,4.69 -44.14,14.16 -12.21,9.46 -18.35,19.8 -18.35,31.2zm208.11 316.45c0.97,-8.97 1.45,-33.88 1.45,-74.71 0,-19.64 -0.48,-48.43 -1.45,-86.27 -0.25,-3.88 -1.94,-7.35 -4.85,-10.27 -2.91,-2.91 -9.06,-5.18 -18.35,-6.71 -7.11,-1.14 -11.72,-2.5 -13.83,-4.05 -2.19,-1.61 -3.24,-3.64 -3.24,-5.98 0,-6.22 4.94,-9.38 14.8,-9.38 1.86,0 6.55,0.73 13.99,2.19 7.52,1.45 12.21,2.19 14.07,2.19 2.1,0 6.38,-0.89 12.85,-2.67 6.56,-1.78 10.59,-2.67 12.14,-2.67 4.28,0 7.03,0.96 8.08,2.83 1.13,1.94 1.7,4.85 1.7,8.82l0 83.6c0,17.06 5.33,30.56 16.09,40.59 10.75,10.02 23.37,15.03 37.76,15.03 6.95,0 15.76,-2.99 26.6,-9.05 10.84,-6.07 19.33,-14.88 25.39,-26.36 6.06,-11.48 9.13,-24.5 9.13,-38.96 0,-17.15 -5.26,-32.35 -15.77,-45.77 -10.51,-13.34 -22.72,-20.05 -36.69,-20.05 -8.33,0 -16.09,1.54 -23.12,4.61 -7.04,3.07 -11.65,4.6 -13.83,4.6 -2.26,0 -4.2,-0.72 -5.98,-2.09 -1.7,-1.46 -2.58,-3.16 -2.58,-5.18 0,-4.69 5.82,-9.54 17.38,-14.47 11.57,-4.94 21.51,-7.35 29.92,-7.35 25.46,0 46.89,8.16 64.1,24.41 17.22,16.33 25.87,38.48 25.87,66.54 0,21.67 -8.9,41.55 -26.68,59.75 -17.78,18.19 -39.2,27.32 -64.26,27.32 -9.62,0 -18.68,-1.29 -27.25,-3.8 -8.57,-2.51 -19.8,-8.33 -33.71,-17.54 -1.21,0 -1.86,4.04 -1.86,12.12 0,19.97 -1.37,35.16 -4.05,45.68 -2.74,10.44 -7.27,19.48 -13.82,27.17 -6.55,7.76 -12.94,13.18 -19.16,16.41 -6.31,3.24 -12.37,4.85 -18.27,4.85 -8.73,0 -13.1,-2.1 -13.1,-6.31 0,-1.78 1.94,-3.72 5.91,-5.82 9.54,-5.18 16.01,-11.97 19.48,-20.22 3.47,-8.25 5.18,-15.93 5.18,-23.04zm307.21 -208.03c26.28,0 49.08,8.97 68.65,27 19.48,17.95 29.26,38.73 29.26,62.25 0,26.36 -9.29,47.79 -27.97,64.35 -18.67,16.58 -43.57,24.9 -74.87,24.9 -24.66,0 -46.9,-8.41 -66.54,-25.3 -19.64,-16.9 -29.51,-37.92 -29.51,-62.98 0,-24.01 8.65,-45.04 25.96,-63.14 17.3,-18.03 42.29,-27.09 75.02,-27.09zm0.17 157.66c18.19,0 32.75,-6.55 43.66,-19.64 10.83,-13.1 16.25,-29.68 16.25,-49.73 0,-19.73 -5.82,-35.89 -17.47,-48.5 -11.64,-12.61 -26.44,-18.92 -44.39,-18.92 -18.35,0 -32.58,6.22 -42.76,18.59 -10.11,12.37 -15.2,28.38 -15.2,47.94 0,21.59 5.66,38.73 16.89,51.34 11.23,12.61 25.54,18.92 43.01,18.92zm182.64 -101.22l0.96 6.63c0.73,0 4.45,-7.53 11,-22.56 6.55,-14.96 13.1,-25.63 19.64,-32.02 6.55,-6.3 13.34,-9.46 20.29,-9.46 5.43,0 9.54,0.97 12.29,2.91 2.83,1.94 4.2,4.05 4.2,6.48 0,4.2 -0.96,7.51 -2.83,9.94 -1.94,2.51 -5.26,5.58 -10.03,9.29 -20.13,15.21 -34.61,33.72 -43.57,55.55 -8.97,21.75 -13.42,39.93 -13.42,54.41 0,6.79 0.89,11.4 2.75,13.83 1.77,2.43 6.22,4.53 13.17,6.14 6.95,1.7 11.4,3.48 13.5,5.34 2.03,1.94 3.07,4.2 3.07,6.71 0,4.61 -2.74,6.95 -8.33,6.95 -4.45,0 -10.59,-0.72 -18.43,-2.18 -7.84,-1.45 -16.25,-2.19 -25.31,-2.19 -6.07,0 -12.12,0.73 -18.35,2.19 -6.14,1.45 -10.1,2.18 -11.88,2.18 -4.45,0 -8,-0.89 -10.67,-2.58 -2.67,-1.7 -4.05,-3.8 -4.05,-6.38 0,-1.94 0.72,-3.71 2.27,-5.26 1.45,-1.53 5.74,-3.47 12.69,-5.82 6.87,-2.34 11.16,-4.69 12.77,-7.02 1.54,-2.35 2.35,-9.7 2.35,-22.16l0 -71.8c0,-4.52 -1.05,-8.65 -3.24,-12.21 -2.1,-3.63 -6.38,-6.38 -12.77,-8.4 -6.39,-1.94 -10.1,-3.64 -11.32,-5.1 -1.21,-1.45 -1.78,-3.07 -1.78,-4.84 0,-5.33 3.71,-8 11.15,-8 2.1,0 5.58,0.4 10.43,1.21 4.77,0.81 8.17,1.21 10.11,1.21 1.53,0 4.13,-0.32 7.68,-0.96 3.64,-0.65 7.84,-0.97 12.78,-0.97 8.57,0 12.85,9.14 12.85,27.33l0 11.64zm153.28 62.42c0,13.26 0.66,21.75 1.86,25.46 1.21,3.72 3.48,5.58 6.71,5.58 5.01,0 11.32,-2.83 18.68,-8.49 7.35,-5.66 12.36,-8.48 15.03,-8.48 2.19,0 4.05,0.96 5.66,2.83 1.7,1.94 2.52,4.28 2.52,6.95 0,4.45 -6.23,11.72 -18.6,21.75 -12.36,10.03 -23.28,15.04 -32.75,15.04 -24.98,0 -37.43,-18.27 -37.43,-54.74l0 -90.95c0,-2.99 -0.41,-4.6 -1.21,-4.85 -0.72,-0.24 -5.17,-0.32 -13.25,-0.32 -6.31,0 -10.59,-0.97 -12.78,-2.83 -2.18,-1.86 -3.31,-4.53 -3.31,-8.08 0,-3.07 0.81,-5.26 2.5,-6.55 1.62,-1.3 4.85,-2.59 9.7,-3.96 4.77,-1.3 8.48,-2.91 11.08,-4.69 2.58,-1.86 6.22,-5.66 10.91,-11.4 4.61,-5.74 7.93,-13.91 9.86,-24.25 2.03,-10.43 3,-25.47 3,-45.04 0,-9.3 2.58,-13.98 7.76,-13.98 5.82,0 9.46,1.3 10.91,3.88 1.45,2.67 2.19,7.04 2.19,13.17l0 79.08c0,3.16 2.02,4.77 6.15,4.77l33.63 0c6.8,0 10.19,2.99 10.19,8.97 0,6.95 -4.85,10.43 -14.63,10.43l-29.6 0c-2.25,0 -3.55,0.33 -4.04,1.05 -0.48,0.72 -0.73,2.5 -0.73,5.33l0 84.33zm115.86 -81.5c0,3.65 1.7,7.28 5.1,11.08 3.39,3.8 14.23,10.43 32.58,20.05 18.35,9.62 30.71,19 37.1,28.3 6.38,9.21 9.62,19 9.62,29.26 0,16.01 -6.71,28.71 -20.05,38.25 -13.34,9.46 -30.55,14.23 -51.74,14.23 -11.72,0 -23.37,-2.58 -35.01,-7.76 -11.57,-5.09 -17.38,-10.27 -17.38,-15.52 0,-4.29 -0.32,-9.61 -0.97,-15.85 -0.65,-6.31 -0.97,-11.32 -0.97,-15.11 0,-7.84 3.65,-11.73 10.92,-11.73 2.1,0 4.05,0.89 5.82,2.59 1.78,1.78 4.52,7.52 8.33,17.38 3.71,9.86 8.33,16.58 13.74,20.21 5.42,3.64 11.48,5.43 18.19,5.43 8.33,0 15.36,-2.76 21.1,-8.25 5.82,-5.5 8.73,-12.61 8.73,-21.26 0,-5.66 -1.94,-10.91 -5.91,-15.93 -3.96,-4.94 -14.72,-11.56 -32.33,-19.88 -17.63,-8.33 -29.03,-16.49 -34.37,-24.5 -5.25,-7.93 -7.92,-16.58 -7.92,-25.79 0,-12.29 5.74,-22.63 17.13,-30.97 11.48,-8.33 24.82,-12.53 39.94,-12.53 12.61,0 24.98,2.19 36.94,6.63 12.04,4.45 18.02,9.22 18.02,14.23 0,2.98 0.33,6.71 0.97,11.16 0.66,4.44 0.97,8 0.97,10.67 0,3.31 -0.81,6.31 -2.5,8.82 -1.7,2.5 -3.81,3.8 -6.4,3.8 -3.63,0 -6.22,-0.89 -7.75,-2.75 -1.54,-1.86 -2.91,-5.09 -4.12,-9.78 -1.3,-4.69 -3.32,-8.33 -6.14,-11.08 -2.83,-2.74 -6.63,-5.17 -11.32,-7.44 -4.77,-2.26 -10.03,-3.39 -15.85,-3.39 -5.82,0 -11.32,1.86 -16.57,5.58 -5.26,3.64 -7.93,7.6 -7.93,11.88zm368.83 115.95c8.09,0 14.23,-2.1 18.44,-6.39 4.2,-4.2 6.3,-9.62 6.3,-16.25 0,-5.98 1.38,-10.75 4.05,-14.23 2.67,-3.56 5.82,-5.33 9.38,-5.33 3.63,0 6.71,1.7 9.14,5 2.42,3.32 3.63,7.69 3.63,13.27 0,5.49 0.25,11.48 0.73,17.95 0.49,6.38 0.72,10.75 0.72,13.1 0,6.55 -0.97,10.75 -2.75,12.69 -1.85,2.03 -6.55,3 -14.06,3l-191.62 0c-13.43,0 -22.63,-1.05 -27.65,-3.07 -4.94,-2.03 -7.44,-5.1 -7.44,-9.13 0,-6.4 4.53,-9.62 13.5,-9.62 11.57,0 19.08,-1.86 22.55,-5.59 3.48,-3.63 5.18,-9.54 5.18,-17.53l0 -216.11c0,-23.28 -0.41,-38.65 -1.22,-46.25 -0.72,-7.51 -2.74,-12.36 -5.9,-14.55 -3.07,-2.11 -9.38,-3.16 -18.84,-3.16 -5.66,0 -10.03,-1.13 -13.1,-3.31 -3.07,-2.19 -4.61,-4.94 -4.61,-8.33 0,-3.07 1.38,-5.82 4.05,-8.17 2.66,-2.34 6.07,-3.47 10.19,-3.47l182.07 0c7.2,0 11.97,1.54 14.14,4.53 2.19,2.99 3.81,7.35 4.85,13.18 1.05,5.82 1.54,15.44 1.54,28.86 0,6.15 -2.67,9.22 -7.93,9.22 -2.99,0 -5.66,-0.89 -8.01,-2.74 -2.34,-1.86 -4.84,-6.47 -7.6,-13.9 -2.75,-7.37 -5.66,-12.14 -8.57,-14.23 -2.92,-2.02 -6.22,-3.07 -10.02,-3.07l-64.93 0c-10.91,0 -17.79,1.54 -20.62,4.61 -2.83,3.07 -4.29,7.68 -4.29,13.83l0 49.96c0,11.63 1.61,19.32 4.77,23.04 3.16,3.72 9.62,5.58 19.24,5.58l63.38 0c5.26,0 9.22,-2.1 11.89,-6.31 2.67,-4.2 4.05,-8.97 4.05,-14.23 0,-2.67 1.12,-4.94 3.31,-6.8 2.19,-1.86 4.77,-2.74 7.68,-2.74 3.16,0 5.74,1.05 7.76,3.07 2.03,2.03 3.07,4.94 3.07,8.73 0,3.32 -0.48,8.08 -1.54,14.32 -1.05,6.22 -1.54,11.32 -1.54,15.27 0,5.99 0.65,12.29 2.03,18.92 1.37,6.63 2.02,10.59 2.02,12.05 0,3.64 -1.21,6.63 -3.56,8.97 -2.34,2.34 -5.09,3.56 -8.17,3.56 -3.32,0 -6.07,-1.46 -8.24,-4.37 -2.19,-2.92 -3.32,-6.95 -3.32,-12.05 0,-5.98 -1.62,-10.26 -4.77,-12.77 -3.16,-2.51 -8.41,-3.81 -15.69,-3.81l-62.9 0c-5.66,0 -10.35,1.14 -13.99,3.47 -3.63,2.27 -5.49,5.59 -5.49,10.03l0 151.43c0,7.84 2.02,13.18 6.07,15.85 4.05,2.67 10.99,4.05 20.77,4.05l81.82 0zm234.38 -22.24c0,11.4 7.6,19.24 22.8,23.69 3.8,1.13 6.62,2.43 8.41,3.88 1.86,1.45 2.75,4.2 2.75,8.25 0,2.09 -1.21,3.87 -3.64,5.41 -2.51,1.54 -5.09,2.34 -8,2.34 -2.99,0 -7.04,-0.72 -12.21,-2.18 -5.1,-1.46 -9.22,-2.19 -12.38,-2.19 -3.63,0 -8.24,0.72 -13.82,2.19 -5.49,1.45 -9.22,2.18 -11.08,2.18 -2.25,0 -4.44,-0.81 -6.55,-2.5 -2.1,-1.7 -3.22,-3.4 -3.22,-5.1 0,-2.67 -0.73,-4.03 -2.35,-4.03 -1.13,0 -2.5,0.56 -4.29,1.7 -17.78,11.15 -37.11,16.73 -57.8,16.73 -9.79,0 -20.78,-2.5 -32.83,-7.6 -12.13,-5.01 -21.75,-12.77 -29.02,-23.28 -7.27,-10.52 -10.92,-23.53 -10.92,-38.97 0,-16.49 7.84,-30.97 23.53,-43.66 15.69,-12.61 35.82,-18.93 60.56,-18.93 8.33,0 17.55,2.35 27.49,7.04 10.03,4.61 15.04,9.38 15.04,14.31 0,2.35 -1.05,4.29 -3.07,5.66 -2.1,1.46 -4.6,2.19 -7.6,2.19 -2.03,0 -6.07,-1.45 -12.13,-4.2 -5.98,-2.75 -12.13,-4.12 -18.51,-4.12 -12.94,0 -23.7,3.81 -32.26,11.4 -8.48,7.6 -12.77,17.78 -12.77,30.48 0,14.8 4.93,26.12 14.72,34.04 9.78,7.92 21.1,11.88 33.88,11.88 11.56,0 22.15,-3.8 31.94,-11.4 9.7,-7.52 14.55,-17.62 14.55,-30.24l0 -64.19c0,-9.62 -3.16,-17.47 -9.55,-23.44 -6.38,-5.99 -14.87,-8.98 -25.54,-8.98 -13.67,0 -26.92,4.29 -39.78,12.94 -4.45,2.98 -7.44,4.52 -8.97,4.52 -3.81,0 -6.95,-0.97 -9.62,-2.99 -2.67,-1.94 -4.05,-4.52 -4.05,-7.68 0,-7.69 7.04,-14.23 21.18,-19.65 14.15,-5.33 29.51,-8 46.25,-8 20.7,0 37.35,5.17 49.96,15.6 12.61,10.43 18.92,22.88 18.92,37.27l0 79.64zm120.3 -74.62l0.96 6.63c0.73,0 4.45,-7.53 11,-22.56 6.55,-14.96 13.1,-25.63 19.64,-32.02 6.55,-6.3 13.34,-9.46 20.29,-9.46 5.43,0 9.55,0.97 12.29,2.91 2.83,1.94 4.21,4.05 4.21,6.48 0,4.2 -0.97,7.51 -2.83,9.94 -1.94,2.51 -5.26,5.58 -10.03,9.29 -20.13,15.21 -34.6,33.72 -43.57,55.55 -8.97,21.75 -13.42,39.93 -13.42,54.41 0,6.79 0.89,11.4 2.75,13.83 1.78,2.43 6.22,4.53 13.17,6.14 6.95,1.7 11.4,3.48 13.5,5.34 2.03,1.94 3.07,4.2 3.07,6.71 0,4.61 -2.74,6.95 -8.33,6.95 -4.45,0 -10.59,-0.72 -18.43,-2.18 -7.84,-1.45 -16.25,-2.19 -25.3,-2.19 -6.07,0 -12.12,0.73 -18.35,2.19 -6.14,1.45 -10.1,2.18 -11.88,2.18 -4.45,0 -8,-0.89 -10.67,-2.58 -2.67,-1.7 -4.05,-3.8 -4.05,-6.38 0,-1.94 0.73,-3.71 2.27,-5.26 1.45,-1.53 5.74,-3.47 12.69,-5.82 6.87,-2.34 11.16,-4.69 12.77,-7.02 1.54,-2.35 2.35,-9.7 2.35,-22.16l0 -71.8c0,-4.52 -1.05,-8.65 -3.23,-12.21 -2.11,-3.63 -6.39,-6.38 -12.78,-8.4 -6.38,-1.94 -10.1,-3.64 -11.32,-5.1 -1.21,-1.45 -1.78,-3.07 -1.78,-4.84 0,-5.33 3.71,-8 11.15,-8 2.11,0 5.58,0.4 10.43,1.21 4.77,0.81 8.18,1.21 10.11,1.21 1.54,0 4.13,-0.32 7.69,-0.96 3.63,-0.65 7.84,-0.97 12.77,-0.97 8.57,0 12.85,9.14 12.85,27.33l0 11.64zm153.29 62.42c0,13.26 0.65,21.75 1.85,25.46 1.22,3.72 3.48,5.58 6.71,5.58 5.01,0 11.32,-2.83 18.68,-8.49 7.35,-5.66 12.37,-8.48 15.04,-8.48 2.18,0 4.04,0.96 5.66,2.83 1.7,1.94 2.51,4.28 2.51,6.95 0,4.45 -6.23,11.72 -18.6,21.75 -12.36,10.03 -23.28,15.04 -32.74,15.04 -24.99,0 -37.43,-18.27 -37.43,-54.74l0 -90.95c0,-2.99 -0.41,-4.6 -1.22,-4.85 -0.72,-0.24 -5.17,-0.32 -13.25,-0.32 -6.31,0 -10.59,-0.97 -12.78,-2.83 -2.18,-1.86 -3.31,-4.53 -3.31,-8.08 0,-3.07 0.81,-5.26 2.5,-6.55 1.62,-1.3 4.85,-2.59 9.7,-3.96 4.77,-1.3 8.48,-2.91 11.08,-4.69 2.58,-1.86 6.22,-5.66 10.91,-11.4 4.61,-5.74 7.93,-13.91 9.87,-24.25 2.02,-10.43 2.99,-25.47 2.99,-45.04 0,-9.3 2.58,-13.98 7.76,-13.98 5.82,0 9.46,1.3 10.91,3.88 1.46,2.67 2.19,7.04 2.19,13.17l0 79.08c0,3.16 2.02,4.77 6.15,4.77l33.63 0c6.8,0 10.19,2.99 10.19,8.97 0,6.95 -4.85,10.43 -14.63,10.43l-29.59 0c-2.26,0 -3.56,0.33 -4.05,1.05 -0.48,0.72 -0.72,2.5 -0.72,5.33l0 84.33zm144.97 19.64c0,4.37 1.21,8.17 3.56,11.23 2.42,3.07 7.6,5.18 15.6,6.23 7.99,1.13 12.85,2.67 14.63,4.6 1.7,1.94 2.59,4.37 2.59,7.28 0,5.18 -4.52,7.76 -13.59,7.76 -4.77,0 -11.81,-0.57 -21.18,-1.7 -9.3,-1.14 -16.41,-1.7 -21.1,-1.7 -4.44,0 -10.99,0.57 -19.57,1.7 -8.57,1.13 -15.03,1.7 -19.48,1.7 -11.08,0 -16.66,-2.92 -16.66,-8.73 0,-2.76 0.81,-5.02 2.35,-6.71 1.61,-1.7 6.55,-2.99 14.79,-3.96 8.25,-0.89 13.74,-3.71 16.34,-8.49 2.58,-4.77 3.88,-10.27 3.88,-16.57l0 -255.65c0,-3.96 -1.38,-7.52 -4.05,-10.68 -2.67,-3.15 -8,-6.07 -15.93,-8.73 -7.92,-2.66 -12.61,-4.77 -14.14,-6.22 -1.54,-1.38 -2.27,-2.92 -2.27,-4.54 0,-5.58 4.69,-8.33 14.07,-8.33 2.75,0 6.87,0.32 12.45,0.97 5.58,0.65 9.7,0.89 12.37,0.89 2.91,0 6.87,-0.65 12.05,-2.1 5.18,-1.45 9.05,-2.19 11.57,-2.19 3.55,0 6.38,1.05 8.48,3.07 2.19,2.1 3.24,7.36 3.24,15.93l0 284.91zm118.36 -3.56c0,5.66 1.21,10.59 3.72,14.79 2.43,4.2 7.6,6.79 15.45,7.84 7.84,1.05 12.45,2.43 13.98,4.2 1.53,1.7 2.27,3.88 2.27,6.39 0,3.71 -1.14,5.9 -3.49,6.71 -2.25,0.81 -6.79,1.22 -13.66,1.22 -4.12,0 -10.35,-0.41 -18.75,-1.22 -8.41,-0.81 -14.56,-1.21 -18.52,-1.21 -4.44,0 -11.07,0.49 -19.8,1.46 -8.73,0.97 -15.28,1.45 -19.73,1.45 -10.1,0 -15.2,-3.39 -15.2,-10.26 0,-2.42 0.81,-4.36 2.35,-5.9 1.61,-1.54 6.38,-2.67 14.31,-3.56 7.93,-0.89 13.25,-3.32 15.85,-7.28 2.59,-3.96 3.88,-8.65 3.88,-14.07 0,-8.24 -0.16,-20.46 -0.48,-36.71 -0.33,-16.17 -0.49,-28.38 -0.49,-36.62 0,-7.53 -2.09,-13.26 -6.38,-17.3 -4.29,-4.05 -10.35,-6.07 -18.2,-6.07 -7.76,0 -16.65,3.8 -26.67,11.32 -6.23,4.77 -10.92,7.11 -13.99,7.11 -1.62,0 -3.23,-0.89 -4.94,-2.67 -1.7,-1.78 -2.58,-3.56 -2.58,-5.33 0,-8.24 8.25,-17.14 24.65,-26.68 16.42,-9.54 29.6,-14.31 39.54,-14.31 9.54,0 18.75,2.83 27.57,8.57 8.81,5.66 14.71,12.7 17.71,21.1 1.54,3.8 2.34,16.81 2.34,39.13 0,9.46 -0.16,20.86 -0.41,34.28 -0.24,13.34 -0.32,21.19 -0.32,23.61z"/>
  </g>
 </g>
</svg>
